<svg width="128" height="128" viewBox="0 0 128 128" xmlns="http://www.w3.org/2000/svg">
  <!-- Background -->
  <rect width="128" height="128" rx="16" fill="#5B21B6"/>
  
  <!-- Brain icon -->
  <g transform="translate(24, 20)">
    <!-- Left hemisphere -->
    <path d="M 20 30 Q 10 25, 10 40 Q 10 55, 20 60 Q 15 65, 15 75 Q 15 85, 25 88" 
          fill="none" stroke="#A78BFA" stroke-width="3" stroke-linecap="round"/>
    
    <!-- Right hemisphere -->
    <path d="M 60 30 Q 70 25, 70 40 Q 70 55, 60 60 Q 65 65, 65 75 Q 65 85, 55 88" 
          fill="none" stroke="#A78BFA" stroke-width="3" stroke-linecap="round"/>
    
    <!-- Center connection -->
    <path d="M 25 88 L 55 88" fill="none" stroke="#A78BFA" stroke-width="3"/>
    
    <!-- Neural patterns -->
    <circle cx="25" cy="40" r="3" fill="#DDD6FE"/>
    <circle cx="40" cy="35" r="3" fill="#DDD6FE"/>
    <circle cx="55" cy="40" r="3" fill="#DDD6FE"/>
    <circle cx="30" cy="55" r="3" fill="#DDD6FE"/>
    <circle cx="50" cy="55" r="3" fill="#DDD6FE"/>
    <circle cx="40" cy="70" r="3" fill="#DDD6FE"/>
  </g>
  
  <!-- Memory text -->
  <text x="64" y="105" font-family="Arial, sans-serif" font-size="18" font-weight="bold" 
        fill="#FFFFFF" text-anchor="middle">MEMORY</text>
</svg>
